<svg xmlns="http://www.w3.org/2000/svg" height="800" width="1200" version="1.0" viewBox="-32.7 -18.36705 283.4 110.2023"><path d="M60.8955 30.9915l11.4755-21.15h.2102l1.9945 21.15M36.1099 50.3951h13.9605l5.5703-10.12h20.1717l1.3408 10.12H92.927L83.745 0H66.7138zm68.9669-40.4134H89.7202L91.8433 0h45.1597l-2.1219 9.9817h-15.7056l-8.5894 40.4134H96.4867M139.515 0h14.1693l-4.7032 22.1263L169.8091 0h16.5406L164.251 22.197l12.7842 28.198h-17.31l-11.0545-26.8038-5.6976 26.8039h-14.17"/><path d="M133.2716 72.9958C-1.886 78.0712-39.3239 41.0588 44.4352 19.0597c-77.8372 29.614-10.154 51.3971 88.8364 53.9361"/><path d="M96.4668 65.3808c120.5633 14.595 159.9045-31.7262 79.3175-46.3205 78.2178 23.1529 5.076 52.666-79.3175 46.3205"/><g transform="translate(-1 -.7659)"><path d="M208.8438 61.7813v5.5h.8125v-2.2188h1.0625l1.3437 2.2188H213l-1.4688-2.3126c.374-.0835.6776-.2629.9063-.5312.2287-.2727.3437-.645.3438-1.0938 0-.4882-.1658-.879-.5-1.1562-.33-.2771-.7817-.4062-1.4063-.4063zm.8125.6562h1.125c.3562 0 .637.0604.8437.2188.2111.1583.3438.4152.3438.7187 0 .33-.0965.5609-.2813.75-.1847.1847-.4606.2813-.8125.2813h-1.2188z" style="line-height:110%;-inkscape-font-specification:'Liberation Sans';text-align:start" font-weight="400" font-size="4.8869" font-family="Liberation Sans" letter-spacing="0" word-spacing="0"/><circle r="4.4136" cy="66.5328" cx="204.0801" transform="translate(4.9273 -2.603) scale(1.00846)" fill="none" stroke="#000" stroke-width=".63" stroke-linecap="square"/></g></svg>